<?xml version="1.0" encoding="UTF-8" standalone="no"?>
<svg
   version="1.1"
   id="svg3"
   sodipodi:docname="California_contour.svg"
   width="115.34223"
   height="138.33237"
   inkscape:version="1.1.2 (0a00cf5339, 2022-02-04)"
   xmlns:inkscape="http://www.inkscape.org/namespaces/inkscape"
   xmlns:sodipodi="http://sodipodi.sourceforge.net/DTD/sodipodi-0.dtd"
   xmlns="http://www.w3.org/2000/svg"
   xmlns:svg="http://www.w3.org/2000/svg">
  <defs
     id="defs7" />
  <sodipodi:namedview
     id="namedview5"
     pagecolor="#ffffff"
     bordercolor="#666666"
     borderopacity="1.0"
     inkscape:pageshadow="2"
     inkscape:pageopacity="0.0"
     inkscape:pagecheckerboard="0"
     showgrid="false"
     fit-margin-top="0"
     fit-margin-left="0"
     fit-margin-right="0"
     fit-margin-bottom="0"
     inkscape:zoom="2.26"
     inkscape:cx="115.26549"
     inkscape:cy="13.495575"
     inkscape:window-width="1846"
     inkscape:window-height="1016"
     inkscape:window-x="74"
     inkscape:window-y="27"
     inkscape:window-maximized="1"
     inkscape:current-layer="svg3" />
  <path
     d="m 3.8199462,0.57924822 0.2028177,0.83827198 -0.1044572,0.171218 -0.2329227,1.159697 -0.4201079,0.988987 0.4264093,0.556501 0.5691737,0.230071 0.4679693,2.537131 0.4313586,0.263415 -0.3646419,0.01233 0.082348,0.94331 0.025927,1.313068 -0.7464252,2.6791678 -0.2508335,0.796249 0.026696,1.026829 0.1662261,0.397616 -0.1075045,0.761574 -1.000893,1.940959 -0.1755564,0.480308 -0.1414287,0.331946 0.033358,0.137874 0.017346,0.07169 0.3126025,-0.227417 0.4393543,-0.620025 0.087111,-0.242911 0.032793,-0.153881 0.071663,-0.01734 0.292978,0.005 0.1766863,0.103194 0.099509,0.121868 0.017346,0.0717 -0.1044561,0.171219 -0.1866217,0.121043 -0.055652,0.08352 -0.2582846,0.138383 -0.1976458,0.123711 -0.066152,0.01601 -0.121803,0.09952 -0.092624,0.244246 -0.1532627,0.258916 -0.050139,0.08219 -0.042485,0.16206 -0.065586,0.307759 -0.092624,0.244245 -0.121804,0.09952 -0.1711741,-0.10453 -0.099509,-0.121868 -0.033358,-0.137874 0.1204699,-0.105037 0.1372504,-0.325098 0.054318,-0.08903 -0.016012,-0.06618 -0.017346,-0.07169 -0.071664,0.01734 -0.071665,0.01734 -0.1532628,0.258917 0.016012,0.06618 -0.6678938,1.194882 0.033358,0.137873 -0.1378159,0.03334 -0.029949,0.141516 0.00551,-0.0013 0.00267,0.01103 -0.5041324,1.003479 -0.51767896,1.526321 0.4746299,1.648176 -0.1111183,1.060173 2.03327176,2.012467 0.5135215,0.313588 0.2378906,0.380278 0.04899,0.805436 0.3633074,-0.01785 0.1557265,0.330103 0.066151,-0.016 0.926384,1.392931 0.23979,0.677544 0.4994089,0.544677 0.138604,1.513479 0.3484256,0.499477 0.021748,1.319917 0.2182646,0.612699 -0.4931063,1.000813 -0.3404287,1.921268 0.4555705,2.17235 0.5104727,0.903943 0.2540873,1.339593 -0.2174764,0.934123 -0.3509089,0.382629 0.017912,0.363447 1.3194357,1.811559 0.5655598,0.528671 1.051801,0.994806 1.0903314,2.094662 2.206725,1.812881 0.03469,0.143389 0.134202,0.265256 0.311454,0.660207 0.0061,0.652351 0.155728,0.330103 0.09034,0.05987 0.01601,0.06618 0.103123,-0.176732 0.228161,0.02653 0.23599,0.08301 0.05565,-0.08352 0.01103,-0.0027 -0.05565,0.08352 0.01735,0.07169 0.378171,0.935955 0.409834,0.198569 1.095843,2.093328 -0.666404,-0.656055 -1.080777,-1.717518 0.367709,1.230372 -0.862511,2.199369 0.60748,0.07486 -0.134202,-0.265258 0.362742,-0.309601 0.153829,0.03284 -0.288031,-0.298093 0.280579,-0.359775 0.0507,0.209568 0.187956,-0.11553 -0.171944,0.18171 0.118755,0.49083 0.944314,0.285249 0.517319,0.908124 0.841758,0.753737 0.256951,-0.143897 0.0063,-0.287572 0.155727,0.330103 1.4603,1.187861 0.01735,0.07169 0.137816,-0.03334 0.01601,0.06618 0.07166,-0.01734 0.155162,0.03835 0.247786,-0.205896 -0.01735,-0.07169 -0.311453,-0.660205 0.209479,-0.05068 0.155727,0.330102 0.06615,-0.01601 0.137815,-0.03334 0.07167,-0.01734 0.05565,-0.08352 0.04881,-0.0877 -0.132868,-0.259752 -0.178021,-0.10871 -0.253336,-0.154704 -0.12237,-0.192229 0.05432,-0.08903 0.121803,-0.09952 -0.122368,-0.19223 0.03831,-0.155212 0.275632,-0.06669 0.190799,-0.127892 0.05565,-0.08352 -0.01601,-0.06618 -0.176686,-0.103196 -0.343681,-0.214574 -0.03469,-0.143388 -0.01601,-0.06618 0.17612,-0.188557 0.108071,-0.46982 -0.03336,-0.137875 -0.139714,-0.263923 -0.01601,-0.06618 -0.01601,-0.06618 -0.01103,0.0027 0.192133,-0.122377 0.155163,0.03835 0.307655,0.06567 0.07166,-0.01734 0.125416,-0.398123 0.01678,-0.22006 0.143329,-0.03468 0.0835,0.05569 0.153827,0.03284 0.08768,0.04884 0.359693,0.280752 0.448704,0.33511 0.276196,0.225063 -0.03146,0.159396 0.09951,0.121869 0.07166,-0.01734 0.03279,-0.153879 -0.305942,-0.661542 -0.06672,-0.275746 0.01963,-0.232422 -0.247017,-0.08034 -0.256005,-0.165733 -0.01601,-0.06618 0.170608,-0.187224 0.143329,-0.03468 0.08901,0.05436 0.03202,0.13236 0.172508,0.110044 0.121034,0.186716 0.06805,0.281261 0.03469,0.143389 0.04576,0.502655 0.13838,0.258409 0.08406,0.34744 0.155162,0.03835 0.209479,-0.05068 0.408501,0.193055 0.359693,0.280753 0.07718,-0.01867 0.418394,-0.393119 0.279245,-0.365289 0.04824,-0.379451 0.09262,-0.244248 0.203968,-0.04935 0.281143,-0.06802 0.100844,0.127383 0.159341,0.0315 0.105022,0.120532 0.03469,0.143389 0.01601,0.06618 -0.05565,0.08352 -0.256951,0.143896 -0.05565,0.08352 0.187186,0.170708 0.244172,0.09271 0.551263,-0.133377 0.08901,0.05436 0.03202,0.132359 -0.103122,0.176733 0.09951,0.121868 0.155162,0.03835 0.143328,-0.03468 0.104456,-0.171218 0.363308,-0.01785 0.502458,-0.04568 0.418959,-0.101366 0.170609,-0.187223 0.301538,-0.586683 0.224926,-0.276256 0.07166,-0.01734 -0.01735,-0.07169 0.121803,-0.09952 0.07166,-0.01734 0.03336,0.137874 -0.119905,0.396791 -0.148275,0.327765 -0.207581,0.347951 -0.104457,0.171217 -0.467765,0.189066 -0.226826,-0.02101 -0.0488,0.0877 0.09951,0.121869 0.260185,0.158885 0.291642,-5.09e-4 0.07166,-0.01734 0.07166,-0.01734 0.06615,-0.016 0.104457,-0.171218 0.07166,-0.01734 0.120469,-0.105037 -0.03336,-0.137874 0.01545,-0.225574 0.05565,-0.08352 0.143327,-0.03468 0.70509,-0.100541 0.209481,-0.05068 0.06615,-0.01601 0.08901,0.05436 0.01601,0.06618 0.116856,0.193563 -0.03279,0.15388 0.172508,0.110043 0.171175,0.10453 0.07166,-0.01734 0.242838,0.08719 0.270683,0.226397 0.12237,0.19223 0.07166,-0.01734 0.116856,0.193562 0.06805,0.281264 0.01601,0.06618 -0.120468,0.105038 -0.188522,-0.176223 -0.13838,-0.258409 -0.211378,-0.246584 -0.09951,-0.121869 -0.121803,0.09952 -0.325002,-0.137364 -0.188519,-0.176225 -0.105024,-0.120535 -0.03469,-0.143387 -0.03336,-0.137874 -0.308989,-0.07119 -0.434973,0.03519 -0.132302,0.03201 -0.02781,0.222727 -0.01545,0.225573 -0.17061,0.187223 -0.262462,0.145231 0.169839,0.09902 0.09951,0.121869 -0.203968,0.04935 -0.988134,-0.128704 -0.93248,-0.212224 -0.862151,-0.235076 -0.380654,-0.05385 -0.265696,-0.157552 -0.347296,0.08403 -0.3961,0.171727 -0.778089,0.112365 -0.248352,-0.08586 -0.183006,-0.177559 -0.314502,-0.06985 -0.242839,-0.08719 -0.451752,0.255245 -0.313938,0.221901 -0.347295,0.08403 -0.314501,-0.06985 -0.05014,0.08218 -0.06976,0.314607 -0.208914,0.342436 -0.192133,0.122378 -0.05565,0.08352 0.01735,0.0717 0.122369,0.192228 0.138381,0.25841 0.06615,-0.01601 0.298489,0.0037 0.237325,0.08852 0.09951,0.121868 0.01654,-0.004 0.01735,0.07169 0.105022,0.120535 0.06672,0.275747 -0.0036,0.298603 -0.03831,0.155212 -0.242273,0.204562 -0.08711,0.242912 0.08406,0.347442 0.551827,0.158376 0.658184,0.284427 0.0835,0.05569 -0.05014,0.08218 -0.297155,0.0018 0.01601,0.06618 -0.04881,0.0877 0.165661,0.105863 0.03336,0.137873 0.232339,0.01968 0.204533,0.242402 0.272582,0.523666 -0.03641,0.45248 0.07911,0.640527 0.278096,0.522333 0.218265,0.6127 0.155162,0.03835 0.07166,-0.01734 0.187185,0.170708 0.138382,0.258409 0.380653,0.05385 0.260184,0.158884 0.0835,0.05569 -0.06615,0.01601 -0.06117,0.08485 -0.185287,0.126558 -0.294311,-0.01052 -0.380654,-0.05385 -0.241503,-0.08168 -0.277531,-0.230579 -0.243403,-0.378942 -0.238659,-0.09404 -0.310889,-0.368454 -0.09951,-0.121869 -0.503021,-0.246076 -0.221877,-0.314096 -0.380654,-0.05385 -0.742247,-0.631867 -0.117421,-0.485316 0.05432,-0.08903 0.02534,-0.811745 -0.03469,-0.14339 0.121804,-0.09952 -0.0507,-0.209569 -0.135333,-0.848762 -0.916468,-0.146043 -0.0711,0.309091 -0.291642,5.09e-4 -0.02896,1.110348 -0.05014,0.08218 0.147166,0.92179 -0.108071,0.46982 -0.242273,0.204561 0.0094,0.955135 0.171739,0.396281 0.292978,0.005 0.204532,0.242404 0.52667,1.86326 -0.342329,1.624 0.323288,0.733235 0.382553,0.351114 0.461103,0.69989 0.169839,0.09901 0.244173,0.09271 0.493127,0.832248 0.744146,0.929135 0.602531,0.367945 0.569174,0.230071 0.331283,-0.150208 0.347295,-0.08403 0.187186,0.170709 0.155162,0.03835 0.07166,-0.01734 0.158775,-0.260251 0.275632,-0.06669 0.44737,0.329593 0.410398,0.490323 0.311453,0.660205 0.312263,0.735902 0.03336,0.137873 -0.195182,0.712731 0.03336,0.137874 0.226825,0.02101 0.08216,0.05018 0.03469,0.143389 0.03336,0.137871 0.04937,0.204056 -0.06615,0.016 -0.07166,0.01734 -0.105023,-0.120535 -0.221878,-0.314097 -0.320034,1.402607 -0.401048,0.464815 -0.143329,0.03468 -0.137814,0.03334 -0.08216,-0.05017 -0.310888,-0.368453 -0.08901,-0.05436 -0.06615,0.01601 -0.296591,0.293595 -0.141429,0.331947 -0.03831,0.155213 0.03469,0.143387 0.519034,0.312256 0.03336,0.137874 -0.05565,0.08352 -0.312603,0.227416 0.01601,0.06618 0.01735,0.07169 0.257136,0.749239 0.117421,0.485315 0.117421,0.485316 -0.08711,0.242912 -0.0036,0.298602 0.0124,0.36478 0.06672,0.275747 0.569739,0.521823 0.01791,0.363448 0.204532,0.242403 0.364642,-0.01233 0.719387,0.561507 0.210045,0.24107 0.943165,1.172871 0.512373,1.201218 0.846704,0.46065 0.420313,1.73721 1.273115,1.01715 0.01601,0.0662 0.05071,0.20957 0.12237,0.19223 0.0507,0.20956 -0.08844,0.23741 0.06805,0.28125 0.100074,0.41362 0.305379,0.3698 0.674196,0.3506 0.690975,0.13054 0.377605,0.6442 0.393617,0.71038 0.356081,0.57936 0.587084,0.59352 0.740346,0.33459 0.623491,0.14103 0.123705,0.19776 0.272586,0.52367 0.150211,0.33143 0.06672,0.27574 -0.0488,0.0877 -0.313936,0.22191 -0.296593,0.29359 -0.109405,0.4643 0.185472,0.76658 1.299587,0.788909 0.219417,-0.274909 1.072192,0.476139 0.206432,0.53967 -0.0049,0.29308 0.03469,0.14339 -0.296026,0.58535 -0.196515,0.70722 0.01735,0.0717 -0.146378,0.62503 -0.03223,0.44563 0.37153,0.35379 0.309555,0.36294 -0.228541,0.57486 -0.107508,0.76156 0.166226,0.39762 0.194601,0.46665 -0.338514,0.7474 -0.212526,0.64104 -0.02096,0.22691 0.138379,0.25841 0.100843,0.12738 0.109204,0.11369 0.341783,-0.0827 0.487008,0.17989 0.375704,0.34693 0.480352,1.06886 0.171171,0.10452 0.08768,0.0488 0.705094,-0.10053 1.047397,-0.25341 0.503789,-0.0402 0.446807,0.0379 0.86443,-0.069 0.64084,0.21273 0.867097,-0.058 0.745859,0.33327 0.812013,0.31726 0.877597,0.01 1.075808,0.17754 0.779426,-0.10684 0.988132,0.1287 1.105551,0.61401 0.375708,0.34694 0.466051,0.40681 0.209481,-0.0507 0.171175,0.10453 0.155724,0.33009 0.260185,0.15889 0.291643,-5.1e-4 0.244173,0.0927 0.09951,0.12186 0.01791,0.36344 0.116857,0.19357 0.01791,0.36345 0.199585,0.53549 0.188521,0.17623 0.209479,-0.0507 0.848602,0.7579 0.445471,0.0323 -0.431357,-0.26341 0.399333,0.13105 1.530068,0.87327 0.160671,0.037 1.171668,0.23609 0.463381,0.39577 0.226261,-0.27074 1.334865,-0.24707 1.473245,0.0113 0.503017,0.24606 0.758827,0.98981 0.57491,1.48381 0.04576,0.50266 -0.208917,0.34244 -0.263799,0.1397 0.06672,0.27575 0.122369,0.19224 0.08901,0.0543 0.600634,0.0707 0.21138,0.24658 0.41401,0.19172 0.221313,0.0223 0.109971,-0.17255 0.03146,-0.1594 -0.0124,-0.36477 0.03279,-0.15388 0.05565,-0.0835 0.120472,-0.10502 0.298487,0.004 0.137816,-0.0334 0.08216,0.0502 0.0507,0.20956 0.08901,0.0543 0.258286,-0.13837 0.658184,0.28442 0.06064,-0.0147 0.530868,0.38528 0.637788,0.80308 1.012929,0.85827 0.105023,0.12053 0.137815,-0.0333 0.05432,-0.089 -0.01602,-0.0662 -0.242837,-0.0872 0.120472,-0.10503 0.155159,0.0383 0.15934,0.0315 0.221877,0.31409 1.06307,0.77608 0.847836,1.04417 1.189052,0.66971 0.205866,0.24792 2.182154,2.33839 1.010445,1.74036 0.590921,1.54999 0.387521,1.89109 -0.434407,0.32694 -0.03146,0.1594 0.100074,0.41361 0.150216,0.33144 0.116856,0.19357 0.07166,-0.0173 0.0488,-0.0877 0.02647,-0.22824 0.05014,-0.0822 0.171173,0.10453 0.0835,0.0557 0.03336,0.13788 -0.170611,0.18721 -0.109968,0.17256 -0.137817,0.0333 -0.03146,0.15939 5.63e-4,0.29175 0.116858,0.19357 0.08216,0.0502 0.05565,-0.0835 0.04881,-0.0877 0.04382,-0.15656 0.114959,-0.10369 0.265131,-0.1342 0.270684,0.22639 0.260184,0.15889 0.310888,0.36845 0.06672,0.27575 0.122366,0.19223 0.08407,0.34745 0.06672,0.27574 -0.05432,0.089 0.01601,0.0662 -0.07166,0.0173 -0.06615,0.016 -0.204533,-0.24241 -0.16756,-0.40313 -0.311454,-0.6602 -0.121035,-0.18673 -0.100844,-0.12738 -0.15934,-0.0315 -0.06615,0.016 -0.230439,0.27758 0.1927,0.16939 0.221312,0.0223 0.377605,0.6442 0.407915,1.37243 28.65705,-3.40164 0.10445,-0.17122 0.0556,-0.0835 0.0543,-0.089 0.0662,-0.016 0.0173,0.0717 0.0822,0.0502 0.15383,0.0328 0.0717,-0.0173 0.60882,0.0804 0.41344,-0.10003 0.52209,-0.2781 0.12047,-0.10504 -0.016,-0.0662 0.37264,-0.89576 0.24645,-0.21142 0.0488,-0.0877 0.0377,-0.44697 -0.0124,-0.36478 -0.016,-0.0662 -0.065,-0.87161 -0.0173,-0.0717 -0.61493,-0.73272 -0.0173,-0.0717 -0.0717,0.0173 -0.016,-0.0662 -0.0717,0.0173 -0.0662,0.016 -0.38066,-0.0539 -0.0717,0.0173 -0.0717,0.0173 0.016,0.0662 -0.0662,0.016 -0.0543,0.089 -0.0835,-0.0557 -0.0717,0.0173 -0.0661,0.016 -0.15934,-0.0315 -0.44814,-0.0434 -0.18718,-0.17072 -0.3616,-0.57802 -0.0877,-0.0488 0.0543,-0.089 -0.0174,-0.0717 -0.016,-0.0662 0.0488,-0.0877 0.0438,-0.15655 0.0328,-0.15389 0.0488,-0.0877 0.0717,-0.0173 0.0871,-0.24292 -0.016,-0.0662 0.004,-0.29859 0.0501,-0.0822 -0.0297,-0.43649 0.003,-0.59035 -0.40601,-1.07515 -0.16813,-0.69489 0.55488,-0.43198 0.089,0.0544 0.0661,-0.016 0.0717,-0.0173 0.0543,-0.089 0.0501,-0.0822 0.0717,-0.0173 -0.0187,-0.0772 0.0662,-0.016 -0.016,-0.0662 -0.011,0.003 0.004,-0.29859 0.0662,-0.016 0.30287,-0.58117 0.0543,-0.089 0.32938,-0.44748 0.24722,-0.49764 0.0191,-0.52418 -0.0248,-0.72956 -0.0507,-0.20957 0.0488,-0.0877 -0.016,-0.0662 0.0717,-0.0173 -0.016,-0.0662 0.0661,-0.016 0.14333,-0.0347 0.0661,-0.016 0.0543,-0.089 0.0315,-0.1594 -0.016,-0.0662 -0.15211,-0.62869 -0.0841,-0.34745 -0.15021,-0.33143 -0.0846,-0.6392 -0.0174,-0.0717 -0.016,-0.0662 0.0661,-0.016 0.0772,-0.0187 0.016,0.0662 0.0661,-0.016 0.0556,-0.0835 0.0662,-0.016 -0.016,-0.0662 -0.11876,-0.49084 -0.0173,-0.0717 -0.016,-0.0662 -0.0822,-0.0502 -0.0173,-0.0717 -0.0717,0.0173 -0.0173,-0.0717 0.10807,-0.46982 0.38143,-0.23239 0.31621,-0.52601 0.1422,-0.61819 0.0593,-0.38212 -0.0174,-0.0717 -0.0173,-0.0717 0.0661,-0.016 0.0502,-0.0822 0.0543,-0.089 0.0557,-0.0835 0.0717,-0.0173 0.0662,-0.016 0.0661,-0.016 0.0717,-0.0173 0.27563,-0.0667 -0.0173,-0.0717 0.0717,-0.0173 0.45727,-0.25658 0.8145,-0.56484 0.24094,-0.21008 0.0717,-0.0173 -0.016,-0.0662 -0.0173,-0.0717 -0.016,-0.0662 0.0662,-0.016 0.45536,-0.55384 0.47272,-0.48215 -0.0297,-0.43648 -0.43192,-0.55516 -0.016,-0.0662 -0.0835,-0.0557 -1.85963,-1.3189 -0.0717,0.0173 -0.14332,0.0347 -0.0662,0.016 -0.0661,0.016 -0.0717,0.0173 -0.016,-0.0662 -0.0717,0.0173 -0.0173,-0.0717 -0.0877,-0.0488 -0.0173,-0.0717 0.0766,-0.31042 0.0698,-0.31461 -0.0334,-0.13788 -0.0334,-0.13787 -0.0173,-0.0717 -0.53333,-0.97429 -0.38811,-0.71172 0.037,-0.16072 -0.016,-0.0662 -0.22378,-0.61138 -0.016,-0.0662 -0.0717,0.0173 -0.18985,-0.18174 -0.15383,-0.0328 -0.17668,-0.10321 -0.37705,-0.35245 -0.0174,-0.0717 -0.0877,-0.0488 -0.90352,-1.32257 -0.0187,-0.0772 -0.016,-0.0662 -0.0334,-0.13787 -0.016,-0.0662 0.053,-0.0946 -0.016,-0.0662 0.0488,-0.0877 -0.016,-0.0662 -0.0179,-0.36346 -0.009,-0.66337 -0.016,-0.0662 -0.016,-0.0662 -0.0187,-0.0772 -0.016,-0.0662 -0.0717,0.0173 -0.0174,-0.0717 -0.016,-0.0662 -1.78854,-1.628009 -0.65875,-0.57618 -0.0835,-0.0557 -0.27068,-0.22641 -0.57107,-0.52733 -1.42885,-1.34726 -0.65323,-0.5775 -1.53386,-1.4678 -1.893562,-1.74854 -1.318306,-1.22806 -0.176687,-0.10319 -0.464719,-0.4013 -1.152642,-1.12218 -0.653239,-0.57752 -1.428837,-1.34724 -0.293544,-0.29677 -0.25885,-0.15336 -0.288028,-0.29809 -0.106357,-0.12605 -0.08217,-0.0502 -0.01735,-0.0717 -0.260183,-0.15888 -0.299058,-0.295444 -0.288028,-0.298086 -0.08217,-0.05017 -0.482061,-0.472982 -0.482065,-0.472991 -0.176685,-0.103194 -1.430175,-1.352763 -3.010175,-2.721821 -1.718204,-1.650856 -2.358276,-2.149843 -0.18852,-0.176224 -2.253251,-2.029295 -0.210044,-0.241069 -0.08901,-0.05436 -0.958612,-0.947299 -0.187187,-0.170709 -0.07166,0.01734 -0.11717,-0.193981 -0.658752,-0.576178 -1.218798,-1.106184 -0.464717,-0.401289 -0.399898,-0.422808 -0.857768,-0.819916 -0.929433,-0.802576 -1.516517,-1.396095 -0.394386,-0.424143 -0.946779,-0.874269 -0.482063,-0.472985 -1.516517,-1.396094 -4.041786,-3.657302 -0.653236,-0.577512 -0.205868,-0.247918 -0.276196,-0.225064 -0.01735,-0.07169 -0.260185,-0.158886 -0.859101,-0.82543 -1.428841,-1.347253 -0.475216,-0.468802 -1.965221,-1.731203 -0.293543,-0.296759 -0.56556,-0.528672 -0.781117,-0.768409 -0.270683,-0.226396 -0.293544,-0.296759 -0.27753,-0.23058 -0.08768,-0.04884 -0.01735,-0.07169 -0.564226,-0.523157 -0.27753,-0.230579 -0.669248,-0.643693 -0.365208,-0.27942 -0.459203,-0.402622 -0.293543,-0.296759 -1.969048,-1.77114 -0.0093,-0.03861 -0.01601,-0.06618 -0.07167,0.01734 -1.152644,-1.12219 -1.306473,-1.155023 -0.771601,-0.753198 -0.004,-0.01655 -0.01103,0.0027 -0.176161,-0.173377 -0.482062,-0.472982 -0.192699,-0.169377 -0.100843,-0.127382 -0.171174,-0.104528 -0.106357,-0.126052 0.008,-0.883439 -0.01601,-0.06618 -0.0143,-0.662047 0.03279,-0.153879 -0.03336,-0.137874 0.03641,-0.452481 -0.06862,-0.573016 0.07471,-0.60769 -0.02403,-1.015801 0.0055,-0.0013 0.03507,-0.457996 0.04574,-1.330405 -0.05071,-0.209568 0.05375,-0.380787 0.07641,-3.036622 -0.0124,-0.364781 0.115298,-4.371208 0.0011,-2.720684 0.08271,-1.491132 0.01466,-1.772397 0.01793,-1.10768 0.04,-2.58414 -5.65e-4,-0.291753 -0.02975,-0.436477 0.02401,-0.81726 -0.008,-0.949621 0.01466,-1.772396 0.01048,-1.765546 0.04136,-0.745567 -0.03469,-0.14339 0.06536,-1.562828 0.05183,-2.5111118 -0.02974,-0.436477 0.02954,-2.289722 0.05014,-0.08218 -0.01735,-0.07169 0.01294,-1.176526 0.02344,-1.109014 -0.0143,-0.66205 -0.0069,-0.366114 -5.65e-4,-0.291752 0.03946,-1.042835 -0.452318,-0.03651 -0.06615,0.01601 -1.1086,-0.02367 -0.800948,0.042 -1.556743,-0.06702 -1.764887,-0.01082 -1.698735,-0.02683 -0.591468,-0.0087 -0.810113,-0.01999 -0.381988,-0.05936 -0.137814,0.03334 -0.155163,-0.03835 -0.225491,-0.0155 -0.20948,0.05068 -0.153827,-0.03284 -0.299825,-0.0092 -0.137815,0.03334 -0.380654,-0.05385 -0.5888,0.0024 -0.156496,-0.04386 -0.153827,-0.03284 -0.292978,-0.005 -1.174753,-0.0077 -0.452319,-0.03651 -0.225491,-0.0155 -0.956107,0.0037 -0.08768,-0.04884 -0.132302,0.03201 -0.07166,0.01734 -0.607481,-0.07486 -1.108602,-0.02366 -4.990239,-0.269585 -1.864397,-0.132692 -0.292979,-0.005 -0.160673,-0.03702 -0.656285,0.01284 -0.08768,-0.04884 -0.816959,-0.02417 -1.242241,0.0028 -0.231005,-0.01416 -0.36464,0.01233 -0.06615,0.016 -0.446806,-0.03784 -0.36464,0.01233 -2.00906,-0.10353 -1.108603,-0.02367 -0.452317,-0.03651 -1.054284,-0.112699 -0.799614,0.04752 -0.446805,-0.03784 -0.143328,0.03468 -0.0835,-0.05569 -0.364642,0.01233 -0.209479,0.05068 -0.308989,-0.07119 -0.06615,0.01601 -0.160675,-0.03702 -0.881776,-0.0027 -0.381988,-0.05936 -0.590133,-0.0032 -0.6562851,0.01284 -1.6339185,-0.04835 -0.3034766,-0.07252 -0.071664,0.01734 -0.071664,0.01734 -0.8274587,-0.09169 -0.5184682,-0.0205 -0.3819881,-0.05936 -0.5901334,-0.0032 -0.7452955,-0.04151 -0.2254919,-0.0155 -0.2929773,-0.005 -0.087676,-0.04884 z M 42.052905,115.76715 l -0.03831,0.15521 -0.551262,0.13337 -0.362744,0.3096 1.082133,0.25192 0.645783,-0.0804 -0.06805,-0.28126 -0.551829,-0.15838 z m 1.465249,0.89478 -0.08711,0.2429 0.326334,0.14288 0.582138,0.88661 0.692875,0.42781 1.740089,-0.71874 -0.118752,-0.49082 -0.712502,-0.1954 0.0587,-0.67387 -0.226828,-0.021 -0.224927,0.27626 -0.761305,-0.10769 -0.296592,0.29359 z m 3.765931,-0.83527 -0.08711,0.24291 0.602536,0.36795 -0.197086,0.41545 0.575253,0.5205 1.556742,0.067 0.573554,-0.35478 1.421207,-0.20375 0.19157,-0.41412 -0.579675,-0.29759 -0.347295,0.084 -0.340411,0.45014 -0.448141,-0.0434 -0.967736,-0.64736 -0.776752,0.11788 -0.58652,-0.30176 z m 15.54373,8.60366 -0.0049,0.29308 0.105022,0.12053 0.171176,0.10454 0.188521,0.17623 0.05431,-0.0891 0.203967,-0.0494 0.160679,0.037 0.155159,0.0383 0.293545,0.29677 0.117419,0.48531 -0.158774,0.26026 0.03336,0.13787 0.01735,0.0717 0.04937,0.20406 0.188518,0.17622 0.07166,-0.0173 0.238657,0.094 0.468332,0.10269 0.465484,0.11505 0.384832,0.047 0.203968,-0.0494 -0.01601,-0.0662 0.07166,-0.0173 0.121804,-0.0995 0.03697,-0.16073 -0.10502,-0.12052 -0.08767,-0.0488 -0.306711,-0.3753 -0.326903,-0.43465 -0.0507,-0.20956 -0.105022,-0.12053 -0.414011,-0.19172 -0.497512,-0.24742 -0.226823,-0.021 -0.203967,0.0494 -0.08901,-0.0544 -0.210045,-0.24107 -0.254667,-0.1602 -0.176689,-0.10321 -0.219979,-0.0168 -0.275631,0.0667 z m -11.246281,2.79106 -0.329949,0.15572 0.03336,0.13787 0.08406,0.34745 0.176688,0.1032 0.414011,0.19172 0.708322,0.20223 0.143328,-0.0347 0.275632,-0.0667 0.05432,-0.089 -0.01735,-0.0717 -0.138378,-0.2584 -0.260186,-0.15888 -0.84537,-0.45515 z m 11.092696,3.56842 0.03469,0.14339 0.03336,0.13788 0.225494,0.0155 0.106356,0.12605 0.0835,0.0557 -0.01678,0.22006 -0.02096,0.2269 -0.01544,0.22558 0.239227,0.3858 0.182236,0.46379 0.399901,0.42282 0.875114,0.8916 0.07166,-0.0173 0.132303,-0.032 0.247784,-0.2059 0.06615,-0.016 0.160676,0.037 0.171174,0.10452 0.04881,-0.0877 0.05565,-0.0835 -0.08901,-0.0544 -0.03336,-0.13787 -0.393052,-0.41863 -0.841759,-0.75374 -0.431355,-0.2634 -0.06805,-0.28127 -0.377607,-0.6442 -0.309556,-0.36295 -0.106354,-0.12604 -0.149651,-0.0397 -0.137815,0.0333 z"
     id="California contour"
     style="fill:none;stroke:#000000;stroke-opacity:1" />
</svg>
